<?xml version="1.0" encoding="utf-8"?>
<!-- Generator: Adobe Illustrator 19.0.0, SVG Export Plug-In . SVG Version: 6.00 Build 0)  -->
<svg version="1.1"
	 id="Layer_1" xmlns:dc="http://purl.org/dc/elements/1.1/" xmlns:cc="http://creativecommons.org/ns#" xmlns:rdf="http://www.w3.org/1999/02/22-rdf-syntax-ns#" xmlns:svg="http://www.w3.org/2000/svg" xmlns:sodipodi="http://sodipodi.sourceforge.net/DTD/sodipodi-0.dtd" xmlns:inkscape="http://www.inkscape.org/namespaces/inkscape"
	 xmlns="http://www.w3.org/2000/svg" xmlns:xlink="http://www.w3.org/1999/xlink" x="0px" y="0px" viewBox="0 -2.2 16.9 21.2"
	 style="enable-background:new 0 -2.2 16.9 21.2;" xml:space="preserve">
<g transform="translate(0,-280.06665)">
	<path d="M8.5,278.4c-1.1,0-2.1,0.4-2.8,1.2c-0.3,0.2,0.1,0.6,0.4,0.4c0.6-0.6,1.5-1,2.4-1c0.9,0,1.8,0.4,2.4,1
		c0.2,0.3,0.6-0.1,0.4-0.4C10.5,278.8,9.5,278.4,8.5,278.4z M8.5,279.5c-0.8,0-1.5,0.3-2.1,0.9c-0.3,0.2,0.1,0.7,0.4,0.4
		c0.4-0.4,1.1-0.7,1.7-0.7c0.6,0,1.2,0.3,1.7,0.7c0.2,0.3,0.6-0.1,0.4-0.4C10,279.8,9.2,279.5,8.5,279.5z M8.5,280.5
		c-0.5,0-1,0.2-1.3,0.5c-0.3,0.2,0.1,0.6,0.4,0.4c0.2-0.2,0.6-0.4,0.9-0.4c0.4,0,0.7,0.1,0.9,0.4c0.2,0.3,0.6-0.1,0.4-0.4
		C9.4,280.7,9,280.5,8.5,280.5z M8.5,281.6c-0.4,0-0.8,0.4-0.8,0.8c0,0.4,0.4,0.8,0.8,0.8c0.4,0,0.8-0.4,0.8-0.8
		C9.3,282,8.9,281.6,8.5,281.6z M8.5,282.1c0.1,0,0.3,0.1,0.3,0.3s-0.1,0.3-0.3,0.3c-0.1,0-0.3-0.1-0.3-0.3S8.3,282.1,8.5,282.1z
		 M10.8,282.7c-0.4,0-0.8,0.4-0.8,0.8v0.5c0,0.1,0.1,0.3,0.3,0.3h5.6v6.6c0,0.2-0.1,0.3-0.3,0.3h-4.8c-0.2,0-0.3-0.1-0.3-0.3v-0.3
		h4.5c0.4,0,0.4-0.5,0-0.5h-4.5v-5c0-0.4-0.5-0.4-0.5,0v5.8c0,0.4,0.4,0.8,0.8,0.8h4.8c0.4,0,0.8-0.4,0.8-0.8v-7.4
		c0-0.4-0.4-0.8-0.8-0.8L10.8,282.7z M10.8,283.2h4.8c0.2,0,0.3,0.1,0.3,0.3v0.3h-5.3v-0.3C10.6,283.3,10.7,283.2,10.8,283.2z
		 M2.6,291.7h4.2c0.4,0,0.4-0.5,0-0.5H6.3l-0.3-0.8h2.3c0.4,0,0.8-0.4,0.8-0.8v-4.8c0-0.4-0.4-0.8-0.8-0.8H1.3
		c-0.4,0-0.8,0.4-0.8,0.8c0,0.4,0.5,0.4,0.5,0c0-0.2,0.1-0.3,0.3-0.3h6.9c0.2,0,0.3,0.1,0.3,0.3v4.8c0,0.2-0.1,0.3-0.3,0.3H1.3
		c-0.2,0-0.3-0.1-0.3-0.3v-3.7c0-0.4-0.5-0.4-0.5,0v3.7c0,0.4,0.4,0.8,0.8,0.8h2.3l-0.3,0.8H2.6C2.3,291.2,2.3,291.7,2.6,291.7z
		 M3.2,285c-0.1,0-0.3,0.1-0.3,0.3v3.7c0,0.1,0.1,0.3,0.3,0.3h3.2c0.1,0,0.3-0.1,0.3-0.3V288c0-0.4-0.5-0.4-0.5,0v0.8H3.4v-3.2h1.1
		v1.3c0,0.1,0.1,0.3,0.3,0.3h1.6c0.2,0,0.4-0.3,0.2-0.5L5,285.1c0,0-0.1-0.1-0.2-0.1L3.2,285z M11.6,285c-0.1,0-0.3,0.1-0.3,0.3v3.7
		c0,0.1,0.1,0.3,0.3,0.3h3.2c0.1,0,0.3-0.1,0.3-0.3V288c0-0.3-0.5-0.3-0.5,0v0.8h-2.6v-3.2H13v1.3c0,0.1,0.1,0.3,0.3,0.3h1.6
		c0.2,0,0.4-0.3,0.2-0.5l-1.6-1.6c0,0-0.1-0.1-0.2-0.1L11.6,285z M5,285.9l0.7,0.7H5L5,285.9z M13.5,285.9l0.7,0.7h-0.7V285.9z
		 M4.1,290.3h1.2l0.3,0.8H3.8L4.1,290.3z M4.8,292.2c-0.1,0-0.3,0.1-0.3,0.3v1.1c0,0.4,0.4,0.8,0.8,0.8h7.4c0.4,0,0.8-0.4,0.8-0.8
		v-1.1c0-0.4-0.5-0.4-0.5,0v1.1c0,0.2-0.1,0.3-0.3,0.3H5.3c-0.2,0-0.3-0.1-0.3-0.3v-1.1C5,292.3,4.9,292.2,4.8,292.2z"/>
</g>
</svg>
