<?xml version="1.0" encoding="utf-8"?>
<!-- Generator: Adobe Illustrator 19.0.0, SVG Export Plug-In . SVG Version: 6.00 Build 0)  -->
<svg version="1.1" id="Layer_1" xmlns="http://www.w3.org/2000/svg" xmlns:xlink="http://www.w3.org/1999/xlink" x="0px" y="0px"
	 viewBox="42 -54 100 125" style="enable-background:new 42 -54 100 125;" xml:space="preserve">
<path d="M80.3,29.4h23.5c1,0,1.9-0.8,1.9-1.9c0-1-0.8-1.9-1.9-1.9H80.3c-1,0-1.9,0.8-1.9,1.9C78.4,28.6,79.2,29.4,80.3,29.4z"/>
<path d="M80.3,20.2h23.5c1,0,1.9-0.8,1.9-1.9c0-1-0.8-1.9-1.9-1.9H80.3c-1,0-1.9,0.8-1.9,1.9C78.4,19.3,79.2,20.2,80.3,20.2z"/>
<path d="M80.3,10.9h23.5c1,0,1.9-0.8,1.9-1.9s-0.8-1.9-1.9-1.9H80.3c-1,0-1.9,0.8-1.9,1.9C78.4,10.1,79.2,10.9,80.3,10.9z"/>
<path d="M124.4-31.5v-6.7c0-1-0.8-1.9-1.9-1.9h-8.2c-0.2-3-2.7-5.4-5.8-5.4H75.4c-3.1,0-5.6,2.4-5.8,5.4h-8.2c-1,0-1.9,0.8-1.9,1.9
	v6.7c-4.3,0.6-7.7,4.3-7.7,8.8v22.6c0,4.9,4,8.8,8.8,8.8h5c0.1,0,0.3,0,0.4,0c0.9-0.2,1.5-0.9,1.5-1.8V0.3h2v31.6
	c0,3.2,2.6,5.8,5.8,5.8h33.2c3.2,0,5.8-2.6,5.8-5.8V0.2h2v6.6c0,1,0.8,1.9,1.9,1.9c0.1,0,0.3,0,0.4,0s0.3,0,0.4,0h4.2
	c4.9,0,8.8-4,8.8-8.8v-22.7C132.1-27.3,128.7-31,124.4-31.5z M120.7-31.6h-6.3v-4.8h6.3V-31.6z M73.4-39.8c0-1.1,0.9-2,2-2h33.2
	c1.1,0,2,0.9,2,2v8.2H73.4V-39.8z M63.3-36.4h6.3v4.8h-6.3V-36.4z M110.6,31.8c0,1.1-0.9,2-2,2H75.4c-1.1,0-2-0.9-2-2V0.2h37.2
	C110.6,0.2,110.6,31.8,110.6,31.8z M128.4-0.2c0,2.8-2.3,5.1-5.1,5.1h-3.2v-6.6c0-1-0.8-1.9-1.9-1.9h-3.9H69.6h-3.9
	c-1,0-1.9,0.8-1.9,1.9v6.6h-3.2c-2.8,0-5.1-2.3-5.1-5.1v-22.6c0-2.8,2.3-5.1,5.1-5.1h0.7h61.1h0.7c2.8,0,5.1,2.3,5.1,5.1v22.6H128.4
	z"/>
<circle cx="111.2" cy="-22.6" r="2.3"/>
<path d="M122.8-24.4h-5.7c-1,0-1.9,0.8-1.9,1.9c0,1.1,0.8,1.9,1.9,1.9h5.7c1,0,1.9-0.8,1.9-1.9S123.8-24.4,122.8-24.4z"/>
</svg>
