<?xml version="1.0" encoding="utf-8"?>
<!-- Generator: Adobe Illustrator 19.0.0, SVG Export Plug-In . SVG Version: 6.00 Build 0)  -->
<svg version="1.1" id="Layer_1" xmlns="http://www.w3.org/2000/svg" xmlns:xlink="http://www.w3.org/1999/xlink" x="0px" y="0px"
	 viewBox="248 -312 512 640" style="enable-background:new 248 -312 512 640;" xml:space="preserve">
<title>9</title>
<path d="M503.6-219.6c-92.1,0.8-171.8,32.6-238.3,96.7c-2.6,2.5-5.2,4.8-9,4.4c-3.6-0.4-6.4-2.2-7.7-5.6c-1.4-3.9-0.6-7.4,2.5-10.5
	c14.1-14.1,29.4-27,45.8-38.5C363-219,436.2-241,516.4-238c93,3.5,172.8,38.4,239.6,103.2c4.8,4.6,5.2,10.1,1.3,14.1
	s-9.5,3.7-14.3-1.1c-22-21.9-46.9-40.7-74.1-55.7c-44.9-25-95-39.4-146.4-42.1C516.3-219.9,510-219.6,503.6-219.6z"/>
<path d="M504.5-165.4c77.4,1,144.4,27.6,200.3,81.7c3.7,3.6,5.2,7.6,2.6,12.2c-2.4,4.3-6.3,5.2-10.9,4c-1.8-0.5-3-1.7-4.3-2.9
	c-40.7-39.7-88.9-65-145-73.4c-86.9-13.1-163,10.6-227.9,70.1c-1.3,1.2-2.5,2.4-3.8,3.6c-4.6,4.1-9.8,4.3-13.5,0.4
	c-3.7-3.9-3.5-9.1,0.9-13.5c7.9-7.9,16.3-15.3,25.1-22.2c50.3-38.6,107.2-58.6,170.6-59.9C500.6-165.5,502.5-165.4,504.5-165.4z"/>
<path d="M504-93c56.1,1,105.1,20,146.3,58.5c2.3,1.9,4.1,4.3,5.4,7c1.8,4.2,2.1,7.7-1.9,10.7c-3.7,3-9.1,2.6-12.5-0.8
	c-13.7-14.1-29.5-25.1-46.8-34.4c-73.5-39.5-166.7-26.3-226.4,32.1c-5.2,5.1-10.6,5.7-14.7,1.5s-3.5-9.7,2.1-15
	C397.2-72.6,446.7-92.2,504-93z"/>
<path d="M503.6-20.2c37.3,0.6,69.7,13.3,97,38.9c3.6,3.4,5.8,7.1,4,12.1c-2.5,6.8-10.3,7.5-16.3,1.7C573.9,18.4,557,8.1,537.6,3
	C492.9-8.8,453.2,0.9,419,32.3c-3.8,3.5-7.7,4.8-12.3,2.2c-4.1-2.3-4.9-6.1-3.9-10.5c0.5-2.1,2-3.7,3.5-5.1
	C433.6-6.8,466.2-19.6,503.6-20.2z"/>
<path d="M504.4,126.2c-20.3,0.3-37-16-37.2-36.3c0-0.3,0-0.6,0-0.9c0-20.6,16.6-37.3,37.2-37.3s37.3,16.6,37.3,37.2
	C541.7,109.5,525,126.2,504.4,126.2C504.4,126.2,504.4,126.2,504.4,126.2z"/>
</svg>
