<?xml version="1.0" encoding="utf-8"?>
<!-- Generator: Adobe Illustrator 19.0.0, SVG Export Plug-In . SVG Version: 6.00 Build 0)  -->
<svg version="1.1" id="Layer_1" xmlns="http://www.w3.org/2000/svg" xmlns:xlink="http://www.w3.org/1999/xlink" x="0px" y="0px"
	 viewBox="-234 231.8 30 39.2" style="enable-background:new -234 231.8 30 39.2;" xml:space="preserve">
<path d="M-232.6,237.4h11.7v-0.9h1.8v-1.4h10.3l1.3,1.1l3.5-0.9v-1.5l-3.5-0.9l-1.3,1.1h-10.3v-1.4l-1.8,0v-0.9h-11.7
	c-0.4,0-0.7,0.1-1,0.4c-0.3,0.3-0.4,0.6-0.4,1l0,2.7c0,0.4,0.2,0.8,0.4,1C-233.3,237.3-232.9,237.4-232.6,237.4z M-207.2,234.2
	l1.8,0.5l-1.8,0.5l-0.5-0.5L-207.2,234.2z M-220.2,233.8v1.6h-0.7v-1.6H-220.2z M-232.9,233.3c0-0.1,0-0.2,0.1-0.3
	c0.1-0.1,0.2-0.1,0.3-0.1h10.6v3.4h-10.6c-0.1,0-0.2,0-0.3-0.1c-0.1-0.1-0.1-0.2-0.1-0.3V233.3L-232.9,233.3z"/>
<rect x="-231.5" y="234.1" width="8.1" height="1.1"/>
<path d="M-231.8,260h7.6v2h-1.1v1.1h12.5v-1.1h-1.1v-2h7.7c1.2,0,2.2-1,2.2-2.2v-16.6c0-1.2-1-2.2-2.2-2.2h-25.5
	c-1.2,0-2.2,1-2.2,2.2v16.6C-234,259-233,260-231.8,260z M-215,262.1h-8.1v-2h8.1C-215,260-215,262.1-215,262.1z M-232.9,241.2
	c0-0.6,0.5-1.1,1.1-1.1h25.5c0.6,0,1.1,0.5,1.1,1.1v16.6c0,0.6-0.5,1.1-1.1,1.1h-25.5c-0.6,0-1.1-0.5-1.1-1.1V241.2L-232.9,241.2z"
	/>
<path d="M-206.2,241.1h-25.7v16.7h25.7V241.1z M-207.3,256.8h-23.5v-14.6h23.5V256.8z"/>
<path d="M-223.1,251.2l-0.9,0.5l0.5,0.9l0.9-0.5c0.2,0.3,0.5,0.6,0.9,0.9l-0.5,0.9l0.9,0.5l0.5-0.9c0.4,0.2,0.8,0.2,1.2,0.3v1.1h1.1
	v-1.1c0.4-0.1,0.8-0.1,1.2-0.3l0.5,0.9l0.9-0.5l-0.5-0.9c0.3-0.2,0.6-0.5,0.9-0.9l0.9,0.5l0.5-0.9l-0.9-0.5c0.2-0.4,0.2-0.8,0.3-1.2
	h1.1V249h-1.1c-0.1-0.4-0.1-0.8-0.3-1.2l0.9-0.5l-0.5-0.9l-0.9,0.5c-0.2-0.3-0.5-0.6-0.9-0.9l0.5-0.9l-0.9-0.5l-0.5,0.9
	c-0.4-0.2-0.8-0.2-1.2-0.3v-1.1h-1.1v1.1c-0.4,0.1-0.8,0.1-1.2,0.3l-0.5-0.9l-0.9,0.5l0.5,0.9c-0.3,0.2-0.6,0.5-0.9,0.9l-0.9-0.5
	l-0.5,0.9l0.9,0.5c-0.2,0.4-0.2,0.8-0.3,1.2h-1.1v1.1h1.1C-223.3,250.4-223.2,250.8-223.1,251.2z M-222.3,249.5
	c0-1.8,1.5-3.3,3.3-3.3c1.8,0,3.3,1.5,3.3,3.3s-1.5,3.3-3.3,3.3C-220.8,252.8-222.3,251.3-222.3,249.5z"/>
<path d="M-219,251.5c1.1,0,2-0.9,2-2c0-1.1-0.9-2-2-2c-1.1,0-2,0.9-2,2C-221,250.6-220.1,251.5-219,251.5z M-219,248.6
	c0.5,0,0.9,0.4,0.9,0.9c0,0.5-0.4,0.9-0.9,0.9s-0.9-0.4-0.9-0.9C-219.9,249-219.5,248.6-219,248.6z"/>
</svg>
