<?xml version="1.0" encoding="utf-8"?>
<!-- Generator: Adobe Illustrator 19.0.0, SVG Export Plug-In . SVG Version: 6.00 Build 0)  -->
<svg version="1.1" id="Layer_1" xmlns="http://www.w3.org/2000/svg" xmlns:xlink="http://www.w3.org/1999/xlink" x="0px" y="0px"
	 viewBox="8 -12 32 40" style="enable-background:new 8 -12 32 40;" xml:space="preserve">
<title>da-icons-perfume copy</title>
<desc>Created with Sketch.</desc>
<g>
	<g>
		<path d="M31-5H17v18h14V-5z M31-6v-1c0-1.1-0.9-2-2-2H19c-1.1,0-2,0.9-2,2v1H31z M31,14H17v1c0,1.1,0.9,2,2,2h10c1.1,0,2-0.9,2-2
			V14z M19-10h10c1.7,0,3,1.3,3,3v22c0,1.7-1.3,3-3,3H19c-1.7,0-3-1.3-3-3V-7C16-8.7,17.3-10,19-10z M23.5,15h1v1h-1V15z M22-8h4v1
			h-4V-8z"/>
	</g>
</g>
</svg>
