<?xml version="1.0" encoding="utf-8"?>
<!-- Generator: Adobe Illustrator 19.0.0, SVG Export Plug-In . SVG Version: 6.00 Build 0)  -->
<svg version="1.1" id="Layer_1" xmlns="http://www.w3.org/2000/svg" xmlns:xlink="http://www.w3.org/1999/xlink" x="0px" y="0px"
	 viewBox="42 -54 100 125" style="enable-background:new 42 -54 100 125;" xml:space="preserve">
<path d="M126.7-14.8L95.4-44.7c-1.9-1.8-5.2-1.8-7.1,0l-31.4,30c-1.1,1.1-1.3,2.9-0.4,4.3c0.7,1,1.8,1.4,2.9,1.4h2.3v43.8
	c0,1.8,1.6,3.2,3.4,3.2h54l0,0c1.8,0,3.2-1.4,3.4-3.2V-8.9h2.4c1.6,0,2.9-1.1,3.2-2.6C128.3-12.8,127.8-14,126.7-14.8z M90.6-16
	c0-0.8,0.6-1.4,1.4-1.4s1.4,0.6,1.4,1.4s-0.6,1.4-1.4,1.4C91.2-14.7,90.6-15.3,90.6-16z M124.6-11.9h-5.4v46.8
	c0,0.1-0.1,0.2-0.2,0.2h-11.6v-10l3.5-3.5c0.6,0.3,1.3,0.5,2.1,0.5c2.5,0,4.6-2.1,4.6-4.6s-2.1-4.6-4.6-4.6s-4.6,2.1-4.6,4.6
	c0,0.6,0.1,1.2,0.3,1.7l-4.6,4.6l0,0l0,0v11.3h-3.5V13.8l3.5-3.5c0.6,0.3,1.3,0.5,2.1,0.5c2.5,0,4.6-2.1,4.6-4.6s-2.1-4.6-4.6-4.6
	s-4.6,2.1-4.6,4.6c0,0.6,0.1,1.2,0.3,1.7l-4.6,4.6l0,0l0,0v22.6h-3.8v-46.8c1.7-0.7,3-2.3,3-4.3c0-2.6-2.1-4.6-4.6-4.6
	c-2.6,0-4.6,2.1-4.6,4.6c0,2,1.3,3.7,3,4.3v46.8h-3.8V3.5l0,0l0,0l-4.9-4.9c0.2-0.5,0.3-1,0.3-1.6c0-2.6-2.1-4.6-4.6-4.6
	S72.7-5.5,72.7-3s2.1,4.6,4.6,4.6c0.8,0,1.5-0.2,2.2-0.6l3.8,3.8V35h-3.8V19.2l0,0l0,0l-3.8-3.8c0.3-0.6,0.4-1.2,0.4-1.9
	c0-2.6-2.1-4.6-4.6-4.6s-4.5,2-4.5,4.6c0,2.5,2.1,4.6,4.6,4.6c0.7,0,1.3-0.2,1.9-0.4l2.9,2.9v14.5H64.9c-0.1,0-0.2-0.1-0.2-0.2
	v-46.8h-5.4c0,0-0.1,0-0.2-0.2c0-0.2,0.1-0.4,0.1-0.4l31.4-30c0.4-0.4,0.8-0.6,1.4-0.6l0,0c0.5,0,1.1,0.2,1.2,0.7l31.4,30
	c0.1,0.1,0.1,0.2,0.1,0.4S124.6-11.9,124.6-11.9z M111.6,17.5c0-0.8,0.6-1.4,1.4-1.4s1.4,0.6,1.4,1.4s-0.6,1.4-1.4,1.4
	S111.6,18.3,111.6,17.5z M104.9,6.2c0-0.8,0.6-1.4,1.4-1.4s1.4,0.6,1.4,1.4s-0.6,1.4-1.4,1.4S104.9,7,104.9,6.2z M77.4-1.6
	C76.6-1.6,76-2.2,76-3s0.6-1.4,1.4-1.4s1.4,0.6,1.4,1.4S78.1-1.6,77.4-1.6z M70.2,13.5c0-0.8,0.6-1.4,1.4-1.4c0.8,0,1.4,0.6,1.4,1.4
	s-0.6,1.4-1.4,1.4C70.8,14.9,70.2,14.2,70.2,13.5z"/>
</svg>
